<mxfile host="app.diagrams.net" modified="2023-07-24T11:28:57.140Z" agent="Mozilla/5.0 (Windows NT 10.0; Win64; x64) AppleWebKit/537.36 (KHTML, like Gecko) Chrome/114.0.0.0 Safari/537.36" etag="uYw0WMf044tjrifOxccV" version="21.6.5" type="github">
  <diagram name="第 1 页" id="Jsd-dne5opygkCFEj_SH">
    <mxGraphModel dx="1659" dy="1158" grid="0" gridSize="10" guides="1" tooltips="1" connect="1" arrows="1" fold="1" page="0" pageScale="1" pageWidth="827" pageHeight="1169" math="0" shadow="0">
      <root>
        <mxCell id="0" />
        <mxCell id="1" parent="0" />
        <mxCell id="q3j_82noRrn2rTfXetKq-3" value="" style="edgeStyle=none;curved=1;rounded=0;orthogonalLoop=1;jettySize=auto;html=1;fontSize=12;startSize=8;endSize=8;" edge="1" parent="1" source="q3j_82noRrn2rTfXetKq-1" target="q3j_82noRrn2rTfXetKq-2">
          <mxGeometry relative="1" as="geometry" />
        </mxCell>
        <mxCell id="q3j_82noRrn2rTfXetKq-1" value="" style="rounded=0;whiteSpace=wrap;html=1;fontSize=16;" vertex="1" parent="1">
          <mxGeometry x="75" y="120" width="120" height="60" as="geometry" />
        </mxCell>
        <mxCell id="q3j_82noRrn2rTfXetKq-2" value="" style="rhombus;whiteSpace=wrap;html=1;fontSize=16;rounded=0;" vertex="1" parent="1">
          <mxGeometry x="335" y="110" width="80" height="80" as="geometry" />
        </mxCell>
        <mxCell id="q3j_82noRrn2rTfXetKq-4" value="" style="ellipse;whiteSpace=wrap;html=1;aspect=fixed;fontSize=16;strokeColor=#FF299B;" vertex="1" parent="1">
          <mxGeometry x="189" y="358" width="80" height="80" as="geometry" />
        </mxCell>
        <mxCell id="q3j_82noRrn2rTfXetKq-5" value="" style="ellipse;whiteSpace=wrap;html=1;fontSize=16;" vertex="1" parent="1">
          <mxGeometry x="215" y="-14" width="120" height="80" as="geometry" />
        </mxCell>
        <mxCell id="q3j_82noRrn2rTfXetKq-6" value="" style="ellipse;whiteSpace=wrap;html=1;aspect=fixed;fontSize=16;" vertex="1" parent="1">
          <mxGeometry x="-70" y="-28" width="80" height="80" as="geometry" />
        </mxCell>
        <mxCell id="q3j_82noRrn2rTfXetKq-7" value="" style="shape=xor;whiteSpace=wrap;html=1;fontSize=16;" vertex="1" parent="1">
          <mxGeometry x="-18" y="278" width="60" height="80" as="geometry" />
        </mxCell>
        <mxCell id="q3j_82noRrn2rTfXetKq-8" value="" style="shape=xor;whiteSpace=wrap;html=1;strokeColor=#FF299B;fontFamily=Helvetica;fontSize=16;fontColor=default;fillColor=default;" vertex="1" parent="1">
          <mxGeometry x="351" y="295" width="60" height="80" as="geometry" />
        </mxCell>
        <mxCell id="q3j_82noRrn2rTfXetKq-9" value="" style="shape=cylinder3;whiteSpace=wrap;html=1;boundedLbl=1;backgroundOutline=1;size=15;strokeColor=#FF299B;fontFamily=Helvetica;fontSize=16;fontColor=default;fillColor=default;" vertex="1" parent="1">
          <mxGeometry x="647" y="451" width="60" height="80" as="geometry" />
        </mxCell>
        <mxCell id="q3j_82noRrn2rTfXetKq-10" value="" style="ellipse;whiteSpace=wrap;html=1;aspect=fixed;" vertex="1" parent="1">
          <mxGeometry x="525" y="-28" width="80" height="80" as="geometry" />
        </mxCell>
        <mxCell id="q3j_82noRrn2rTfXetKq-11" value="" style="rounded=1;whiteSpace=wrap;html=1;" vertex="1" parent="1">
          <mxGeometry x="368" y="-129" width="120" height="60" as="geometry" />
        </mxCell>
        <mxCell id="q3j_82noRrn2rTfXetKq-12" value="" style="shape=cylinder3;whiteSpace=wrap;html=1;boundedLbl=1;backgroundOutline=1;size=15;" vertex="1" parent="1">
          <mxGeometry x="-203" y="138" width="60" height="80" as="geometry" />
        </mxCell>
      </root>
    </mxGraphModel>
  </diagram>
</mxfile>
